<?xml version="1.0" encoding="UTF-8" standalone="no"?>
<!-- Created with Inkscape (http://www.inkscape.org/) -->

<svg
   width="128.56836"
   height="64"
   viewBox="0 0 64.28418 32"
   version="1.1"
   id="svg1"
   inkscape:version="1.4 (86a8ad7, 2024-10-11)"
   sodipodi:docname="Immanuel-Aziba-Logo-Kit.svg"
   xml:space="preserve"
   inkscape:export-filename="Immanuel-Aziba-Logo-Watermark.png"
   inkscape:export-xdpi="96"
   inkscape:export-ydpi="96"
   xmlns:inkscape="http://www.inkscape.org/namespaces/inkscape"
   xmlns:sodipodi="http://sodipodi.sourceforge.net/DTD/sodipodi-0.dtd"
   xmlns="http://www.w3.org/2000/svg"
   xmlns:svg="http://www.w3.org/2000/svg"
   xmlns:rdf="http://www.w3.org/1999/02/22-rdf-syntax-ns#"
   xmlns:cc="http://creativecommons.org/ns#"
   xmlns:dc="http://purl.org/dc/elements/1.1/"><title
     id="title1">Logo-Kit-Moodboard-Workspace</title><sodipodi:namedview
     id="namedview1"
     pagecolor="#ffffff"
     bordercolor="#000000"
     borderopacity="0.25"
     inkscape:showpageshadow="2"
     inkscape:pageopacity="0.0"
     inkscape:pagecheckerboard="0"
     inkscape:deskcolor="#d1d1d1"
     inkscape:document-units="px"
     showgrid="false"
     inkscape:zoom="0.37341844"
     inkscape:cx="6153.9543"
     inkscape:cy="1332.2856"
     inkscape:window-width="1920"
     inkscape:window-height="1046"
     inkscape:window-x="-11"
     inkscape:window-y="-11"
     inkscape:window-maximized="1"
     inkscape:current-layer="layer5"
     showguides="false"
     inkscape:export-bgcolor="#ffffff00"><inkscape:grid
       id="grid1"
       units="px"
       originx="-3040.3696"
       originy="-784.25885"
       spacingx="0.5"
       spacingy="0.5"
       empcolor="#0099e5"
       empopacity="0.30196078"
       color="#0099e5"
       opacity="0.14901961"
       empspacing="10"
       enabled="true"
       visible="false" /><inkscape:page
       x="0"
       y="0"
       width="64.28418"
       height="32"
       id="page2"
       margin="0"
       bleed="0" /></sodipodi:namedview><defs
     id="defs1" /><g
     inkscape:groupmode="layer"
     id="layer5"
     inkscape:label="Export Ready"
     transform="translate(-2070.3696,-784.25885)"><g
       id="g19"
       inkscape:export-filename="C:\Users\USER\Downloads\Immanuel Aziba System\mannyaziba\manny_aziba_Logo.svg"
       inkscape:export-xdpi="96"
       inkscape:export-ydpi="96"
       transform="matrix(0.88316722,0,0,0.88316722,245.64236,93.496462)"><g
         id="g72"
         style="display:inline"
         transform="matrix(-0.53033014,0.53033015,-0.53033015,-0.53033014,1208.4711,1696.2718)"><g
           id="g71"><path
             id="path71"
             style="fill:#ecebe6;fill-opacity:1;stroke:none;stroke-width:0.31435"
             transform="rotate(90)"
             d="m 19.091797,1636.2852 v 55.5175 c 0,0.406 0.326494,0.7325 0.732422,0.7325 h 11.035156 c 0.405928,0 0.732422,-0.3265 0.732422,-0.7325 v -43.0175 z m -43.75,43.75 12.5,12.5 h 43.017578 c 0.405928,0 0.732422,-0.3265 0.732422,-0.7325 v -11.0351 c 0,-0.4059 -0.326494,-0.7324 -0.732422,-0.7324 z" /></g></g><rect
         style="display:inline;fill:#a12121;fill-opacity:1;stroke:none;stroke-width:0.223663"
         id="rect93"
         width="9.375001"
         height="42.187"
         x="-808.94635"
         y="2094.6106"
         ry="0.49458149"
         transform="rotate(-90)" /><g
         id="g75"
         transform="matrix(0.53033015,-0.53033014,0.53033014,0.53033015,2996.5527,-26.375211)"><g
           id="g73"><path
             id="path72"
             style="fill:#ecebe6;fill-opacity:1;stroke:none;stroke-width:0.31435"
             transform="scale(-1)"
             d="m 1604.3027,68.408203 c 0.406,0 0.7325,-0.326494 0.7325,-0.732422 V 12.15918 l -12.5,12.5 v 43.016601 c 0,0.405928 0.3265,0.732422 0.7324,0.732422 z m 31.9825,0 12.5,-12.5 h -55.5176 c -0.4059,0 -0.7324,0.326494 -0.7324,0.732422 v 11.035156 c 0,0.405928 0.3265,0.732422 0.7324,0.732422 z" /></g></g></g></g><metadata
     id="metadata1"><rdf:RDF><cc:Work
         rdf:about=""><dc:title>Logo-Kit-Moodboard-Workspace</dc:title></cc:Work></rdf:RDF></metadata></svg>
